<?xml version="1.0" encoding="UTF-8" standalone="no"?>
<!-- Created with Inkscape (http://www.inkscape.org/) -->

<svg
   width="150mm"
   height="150mm"
   viewBox="0 0 150 150"
   version="1.1"
   id="svg921"
   inkscape:version="1.1.1 (3bf5ae0d25, 2021-09-20)"
   sodipodi:docname="drawing.svg"
   xmlns:inkscape="http://www.inkscape.org/namespaces/inkscape"
   xmlns:sodipodi="http://sodipodi.sourceforge.net/DTD/sodipodi-0.dtd"
   xmlns="http://www.w3.org/2000/svg"
   xmlns:svg="http://www.w3.org/2000/svg">
  <sodipodi:namedview
     id="namedview923"
     pagecolor="#ffffff"
     bordercolor="#666666"
     borderopacity="1.0"
     inkscape:pageshadow="2"
     inkscape:pageopacity="0.0"
     inkscape:pagecheckerboard="0"
     inkscape:document-units="mm"
     showgrid="false"
     inkscape:zoom="0.77771465"
     inkscape:cx="366.45832"
     inkscape:cy="561.25984"
     inkscape:window-width="1440"
     inkscape:window-height="2489"
     inkscape:window-x="-8"
     inkscape:window-y="-8"
     inkscape:window-maximized="1"
     inkscape:current-layer="layer1" />
  <defs
     id="defs918" />
  <g
     inkscape:label="Layer 1"
     inkscape:groupmode="layer"
     id="layer1">
    <g
       id="g1203"
       transform="translate(-21.278351,-41.01031)">
      <g
         id="g8"
         transform="matrix(0.52916667,0,0,0.52916667,26.430821,40.016673)">
        <path
           d="m 157.066,104.386 -2.541,-0.709 V 86.454 c 0,-3.775 -2.909,-7.022 -6.682,-7.136 -3.904,-0.117 -7.106,3.258 -7.106,7.136 0,-3.808 -3.087,-6.85 -6.894,-6.85 h -0.082 c -3.808,0 -6.894,3.042 -6.894,6.85 0,-3.808 -3.087,-6.85 -6.894,-6.85 h -0.082 c -3.807,0 -6.894,3.042 -6.894,6.85 0,-3.878 -3.202,-7.253 -7.106,-7.136 -3.773,0.113 -6.682,3.361 -6.682,7.136 v 40.907 c 0,4.514 0.671,9.004 1.99,13.321 0.461,1.509 1.136,2.906 1.985,4.166 2.7,4.003 4.244,8.67 4.244,13.498 v 49.562 h 40.568 v -45.552 c 0,-5.04 4.336,-11.418 8.233,-17.032 1.57,-2.261 3.015,-4.604 4.333,-7.016 1.92,-3.512 3.032,-7.409 3.332,-11.401 l 0.868,-11.555 c 0.377,-5.021 -2.844,-9.612 -7.696,-10.966 z"
           fill="#f9d0b4"
           id="path6" />
      </g>
      <g
         id="g52"
         transform="matrix(0.52916667,0,0,0.52916667,26.430821,40.016673)">
        <path
           d="m 140.737,102.208 c -1.381,0 -2.5,-1.119 -2.5,-2.5 V 86.454 c 0,-1.381 1.119,-2.5 2.5,-2.5 1.381,0 2.5,1.119 2.5,2.5 v 13.254 c 0,1.381 -1.119,2.5 -2.5,2.5 z"
           id="path50" />
      </g>
      <g
         id="g56"
         transform="matrix(0.52916667,0,0,0.52916667,26.430821,40.016673)">
        <path
           d="m 141.316,123.688 c -1.148,0 -2.182,-0.796 -2.439,-1.963 -0.214,-0.97 0.168,-1.933 0.9,-2.507 -1.018,-0.624 -2.638,-1.345 -4.002,-1.953 l -0.773,-0.345 c -1.078,-0.484 -2.216,-0.738 -3.383,-0.755 -5.31,-0.078 -9.814,-3.755 -10.955,-8.94 -0.474,-2.151 -0.007,-4.41 1.281,-6.197 1.287,-1.787 3.281,-2.946 5.472,-3.179 7.459,-0.794 14.907,-0.172 22.134,1.844 l 6.331,1.767 c 1.33,0.372 2.107,1.75 1.736,3.08 -0.372,1.33 -1.752,2.106 -3.08,1.736 l -6.331,-1.767 c -6.616,-1.846 -13.433,-2.416 -20.262,-1.689 -0.789,0.084 -1.479,0.485 -1.943,1.129 -0.464,0.644 -0.625,1.425 -0.455,2.201 0.64,2.909 3.167,4.971 6.146,5.016 1.85,0.027 3.652,0.428 5.356,1.192 l 0.76,0.34 c 2.446,1.089 4.755,2.118 6.128,3.411 1.193,1.125 1.663,2.804 1.227,4.384 -0.437,1.582 -1.705,2.784 -3.308,3.137 -0.181,0.038 -0.362,0.058 -0.54,0.058 z"
           id="path54" />
      </g>
      <g
         id="g60"
         transform="matrix(0.52916667,0,0,0.52916667,26.430821,40.016673)">
        <path
           d="m 147.996,210.408 c -1.381,0 -2.5,-1.119 -2.5,-2.5 v -45.552 c 0,-5.954 4.813,-12.887 8.679,-18.458 1.506,-2.17 2.917,-4.454 4.194,-6.79 1.732,-3.168 2.752,-6.664 3.032,-10.388 l 0.868,-11.555 c 0.287,-3.822 -2.183,-7.343 -5.874,-8.373 l -2.542,-0.71 c -1.081,-0.301 -1.828,-1.286 -1.828,-2.408 v -17.22 c 0,-2.486 -1.91,-4.566 -4.257,-4.637 -1.124,-0.035 -2.216,0.406 -3.074,1.238 -0.926,0.899 -1.458,2.137 -1.458,3.398 0,1.381 -1.119,2.5 -2.5,2.5 -1.381,0 -2.5,-1.119 -2.5,-2.5 0,-2.398 -1.971,-4.35 -4.395,-4.35 -2.504,0 -4.476,1.951 -4.476,4.35 0,1.381 -1.119,2.5 -2.5,2.5 -1.381,0 -2.5,-1.119 -2.5,-2.5 0,-2.398 -1.971,-4.35 -4.394,-4.35 -2.505,0 -4.476,1.951 -4.476,4.35 0,1.381 -1.119,2.5 -2.5,2.5 -1.381,0 -2.5,-1.119 -2.5,-2.5 0,-1.261 -0.531,-2.5 -1.458,-3.398 -0.857,-0.833 -1.948,-1.28 -3.074,-1.238 -2.348,0.07 -4.257,2.15 -4.257,4.636 v 40.907 c 0,4.271 0.633,8.507 1.88,12.59 0.38,1.245 0.941,2.422 1.667,3.499 3.056,4.531 4.671,9.682 4.671,14.895 v 49.563 c 0,1.381 -1.119,2.5 -2.5,2.5 -1.381,0 -2.5,-1.119 -2.5,-2.5 v -49.563 c 0,-4.213 -1.32,-8.397 -3.817,-12.1 -1.003,-1.489 -1.779,-3.115 -2.304,-4.834 -1.393,-4.557 -2.099,-9.285 -2.099,-14.051 V 86.452 c 0,-5.162 4.085,-9.483 9.107,-9.634 2.488,-0.061 4.87,0.865 6.706,2.647 0.189,0.183 0.37,0.374 0.542,0.571 1.714,-1.805 4.141,-2.934 6.827,-2.934 2.767,0 5.245,1.16 6.972,3.01 1.717,-1.85 4.174,-3.01 6.898,-3.01 2.731,0 5.181,1.13 6.905,2.938 0.174,-0.199 0.356,-0.391 0.546,-0.576 1.837,-1.782 4.207,-2.721 6.707,-2.648 5.021,0.151 9.107,4.473 9.107,9.635 v 15.325 l 0.713,0.199 c 5.979,1.668 9.981,7.373 9.516,13.563 l -0.868,11.554 c -0.333,4.439 -1.555,8.616 -3.631,12.413 -1.361,2.491 -2.867,4.927 -4.473,7.242 -3.286,4.735 -7.787,11.219 -7.787,15.607 v 45.552 c 0.005,1.383 -1.114,2.502 -2.495,2.502 z"
           id="path58" />
      </g>
      <g
         id="g64"
         transform="matrix(0.52916667,0,0,0.52916667,26.430821,40.016673)">
        <path
           d="m 119.932,117.282 c -5.203,0 -9.435,-4.232 -9.435,-9.435 V 86.454 c 0,-1.381 1.119,-2.5 2.5,-2.5 1.381,0 2.5,1.119 2.5,2.5 v 21.393 c 0,2.445 1.99,4.435 4.435,4.435 1.434,0 2.786,-0.699 3.618,-1.869 0.801,-1.125 2.362,-1.389 3.486,-0.589 1.125,0.8 1.389,2.361 0.589,3.486 -1.769,2.487 -4.645,3.972 -7.693,3.972 z"
           id="path62" />
      </g>
      <g
         id="g68"
         transform="matrix(0.52916667,0,0,0.52916667,26.430821,40.016673)">
        <path
           d="m 126.867,102.517 c -1.381,0 -2.5,-1.119 -2.5,-2.5 V 86.454 c 0,-1.381 1.119,-2.5 2.5,-2.5 1.381,0 2.5,1.119 2.5,2.5 v 13.563 c 0,1.38 -1.119,2.5 -2.5,2.5 z"
           id="path66" />
      </g>
      <g
         id="g72"
         transform="matrix(0.52916667,0,0,0.52916667,26.430821,40.016673)">
        <path
           d="m 106.143,117.282 c -5.203,0 -9.435,-4.232 -9.435,-9.435 0,-1.381 1.119,-2.5 2.5,-2.5 1.381,0 2.5,1.119 2.5,2.5 0,2.445 1.99,4.435 4.435,4.435 2.441,0 4.354,-1.948 4.354,-4.435 0,-1.381 1.119,-2.5 2.5,-2.5 1.381,0 2.5,1.119 2.5,2.5 0,5.202 -4.196,9.435 -9.354,9.435 z"
           id="path70" />
      </g>
    </g>
  </g>
</svg>
