<?xml version="1.0" encoding="UTF-8" standalone="no"?>
<!-- Created with Inkscape (http://www.inkscape.org/) -->

<svg
   width="150mm"
   height="150mm"
   viewBox="0 0 150 150"
   version="1.1"
   id="svg921"
   inkscape:version="1.1.1 (3bf5ae0d25, 2021-09-20)"
   sodipodi:docname="paper.svg"
   xmlns:inkscape="http://www.inkscape.org/namespaces/inkscape"
   xmlns:sodipodi="http://sodipodi.sourceforge.net/DTD/sodipodi-0.dtd"
   xmlns="http://www.w3.org/2000/svg"
   xmlns:svg="http://www.w3.org/2000/svg">
  <sodipodi:namedview
     id="namedview923"
     pagecolor="#ffffff"
     bordercolor="#666666"
     borderopacity="1.0"
     inkscape:pageshadow="2"
     inkscape:pageopacity="0.0"
     inkscape:pagecheckerboard="0"
     inkscape:document-units="mm"
     showgrid="false"
     inkscape:zoom="1.0998546"
     inkscape:cx="300.94887"
     inkscape:cy="493.24702"
     inkscape:window-width="1440"
     inkscape:window-height="2489"
     inkscape:window-x="-8"
     inkscape:window-y="-8"
     inkscape:window-maximized="1"
     inkscape:current-layer="layer1" />
  <defs
     id="defs918" />
  <g
     inkscape:label="Layer 1"
     inkscape:groupmode="layer"
     id="layer1">
    <g
       id="g1720"
       transform="translate(-34.696318,-37.23382)">
      <g
         id="g12"
         transform="matrix(0.52916667,0,0,0.52916667,-6.5939708,36.225896)">
        <path
           d="m 245.775,104.386 -1.606,-0.448 c 0.093,-0.323 0.172,-0.654 0.218,-0.997 l 5.85,-43.907 c 0.497,-3.726 -1.941,-7.359 -5.65,-7.969 -3.839,-0.631 -7.412,2.034 -7.927,5.861 l -4.505,33.513 c -0.237,1.764 -2.683,2.021 -3.282,0.345 L 215.278,52.756 c -1.264,-3.535 -5.088,-5.647 -8.662,-4.494 -3.699,1.193 -5.657,5.192 -4.369,8.827 l 10.195,28.696 c -1.264,-3.536 -5.088,-5.647 -8.662,-4.494 -3.699,1.193 -5.657,5.192 -4.369,8.827 l 0.047,0.309 c -1.264,-3.536 -5.088,-5.647 -8.662,-4.494 -3.699,1.193 -5.657,5.192 -4.369,8.827 l 1.489,4.202 v 28.4 c 0,4.514 0.671,9.004 1.99,13.321 0.461,1.509 1.136,2.906 1.985,4.166 2.7,4.003 4.244,8.67 4.244,13.498 v 49.562 h 40.568 v -45.552 c 0,-5.04 4.336,-11.418 8.233,-17.032 1.57,-2.261 3.015,-4.604 4.334,-7.016 1.92,-3.512 3.032,-7.409 3.332,-11.4 l 0.868,-11.555 c 0.377,-5.023 -2.844,-9.614 -7.695,-10.968 z"
           fill="#f9d0b4"
           id="path10" />
      </g>
      <g
         id="g76"
         transform="matrix(0.52916667,0,0,0.52916667,-6.5939708,36.225896)">
        <path
           d="m 230.024,123.688 c -1.148,0 -2.182,-0.795 -2.439,-1.963 -0.214,-0.97 0.167,-1.933 0.9,-2.507 -1.019,-0.625 -2.64,-1.346 -4.004,-1.954 l -0.771,-0.344 c -1.078,-0.484 -2.216,-0.738 -3.383,-0.755 -5.31,-0.079 -9.814,-3.755 -10.955,-8.94 -0.474,-2.151 -0.007,-4.41 1.28,-6.197 1.288,-1.788 3.282,-2.946 5.473,-3.179 7.46,-0.794 14.908,-0.172 22.134,1.844 l 6.331,1.767 c 1.33,0.372 2.107,1.75 1.736,3.08 -0.371,1.33 -1.753,2.106 -3.08,1.736 l -6.331,-1.767 c -6.616,-1.848 -13.433,-2.416 -20.262,-1.689 -0.789,0.084 -1.479,0.485 -1.943,1.129 -0.464,0.644 -0.625,1.426 -0.455,2.201 0.64,2.909 3.167,4.971 6.146,5.016 1.851,0.027 3.653,0.428 5.356,1.192 l 0.758,0.338 c 2.447,1.089 4.758,2.119 6.13,3.412 1.193,1.124 1.663,2.804 1.226,4.383 -0.437,1.582 -1.704,2.784 -3.308,3.137 -0.18,0.04 -0.36,0.06 -0.539,0.06 z"
           id="path74" />
      </g>
      <g
         id="g80"
         transform="matrix(0.52916667,0,0,0.52916667,-6.5939708,36.225896)">
        <path
           d="m 200.067,121.947 c -1.377,0 -2.748,-0.305 -4.03,-0.912 -2.278,-1.078 -4,-2.979 -4.848,-5.353 l -7.118,-20.088 c -0.461,-1.301 0.22,-2.73 1.521,-3.191 1.302,-0.461 2.73,0.221 3.191,1.521 l 7.116,20.082 c 0.396,1.109 1.206,2.002 2.276,2.509 1.071,0.507 2.275,0.566 3.39,0.167 2.26,-0.808 3.442,-3.305 2.634,-5.565 -0.465,-1.3 0.212,-2.731 1.512,-3.196 1.301,-0.466 2.731,0.212 3.196,1.512 1.736,4.856 -0.802,10.22 -5.658,11.957 -1.037,0.372 -2.111,0.557 -3.182,0.557 z"
           id="path78" />
      </g>
      <g
         id="g84"
         transform="matrix(0.52916667,0,0,0.52916667,-6.5939708,36.225896)">
        <path
           d="m 213.066,117.301 c -3.875,0 -7.516,-2.406 -8.894,-6.259 l -7.118,-20.089 c -0.461,-1.301 0.22,-2.73 1.521,-3.191 1.301,-0.46 2.73,0.221 3.191,1.521 l 7.115,20.082 c 0.821,2.296 3.366,3.499 5.667,2.677 0.429,-0.154 0.834,-0.378 1.204,-0.667 1.088,-0.852 2.659,-0.66 3.51,0.427 0.851,1.087 0.66,2.659 -0.427,3.51 -0.792,0.621 -1.668,1.104 -2.604,1.439 -1.043,0.373 -2.113,0.55 -3.165,0.55 z"
           id="path82" />
      </g>
      <g
         id="g88"
         transform="matrix(0.52916667,0,0,0.52916667,-6.5939708,36.225896)">
        <path
           d="m 217.324,101.941 c -1.026,0 -1.989,-0.637 -2.354,-1.659 l -4.979,-13.926 c -0.465,-1.3 0.212,-2.731 1.512,-3.196 1.301,-0.466 2.731,0.212 3.196,1.512 l 4.979,13.926 c 0.465,1.3 -0.212,2.731 -1.512,3.196 -0.279,0.101 -0.563,0.147 -0.842,0.147 z"
           id="path86" />
      </g>
      <g
         id="g92"
         transform="matrix(0.52916667,0,0,0.52916667,-6.5939708,36.225896)">
        <path
           d="m 236.704,210.408 c -1.381,0 -2.5,-1.119 -2.5,-2.5 v -45.552 c 0,-5.954 4.813,-12.887 8.679,-18.458 1.505,-2.169 2.917,-4.453 4.194,-6.79 1.732,-3.17 2.752,-6.665 3.031,-10.388 l 0.868,-11.555 c 0.287,-3.821 -2.184,-7.342 -5.875,-8.372 l -1.606,-0.448 c -0.642,-0.179 -1.186,-0.607 -1.511,-1.19 -0.325,-0.582 -0.404,-1.27 -0.219,-1.91 0.073,-0.252 0.118,-0.456 0.143,-0.64 l 5.849,-43.902 c 0.33,-2.473 -1.275,-4.793 -3.578,-5.172 -1.181,-0.192 -2.355,0.089 -3.312,0.798 -0.958,0.708 -1.573,1.749 -1.732,2.93 l -4.505,33.513 c -0.262,1.956 -1.758,3.409 -3.72,3.616 -1.969,0.208 -3.729,-0.904 -4.393,-2.762 L 212.922,53.598 c -0.838,-2.345 -3.323,-3.671 -5.541,-2.957 -1.135,0.366 -2.051,1.155 -2.578,2.221 -0.527,1.066 -0.599,2.271 -0.202,3.392 l 10.195,28.695 c 0.462,1.3 -0.217,2.729 -1.517,3.192 -1.296,0.461 -2.729,-0.213 -3.193,-1.513 -0.838,-2.345 -3.321,-3.672 -5.541,-2.957 -1.135,0.366 -2.051,1.155 -2.578,2.221 -0.527,1.066 -0.599,2.271 -0.201,3.391 0.053,0.151 0.092,0.306 0.116,0.464 l 0.046,0.309 c 0.191,1.272 -0.615,2.482 -1.863,2.796 -1.251,0.31 -2.531,-0.372 -2.963,-1.583 -0.839,-2.345 -3.322,-3.672 -5.541,-2.957 -1.135,0.366 -2.051,1.154 -2.578,2.22 -0.527,1.067 -0.599,2.272 -0.202,3.393 l 1.489,4.202 c 0.095,0.268 0.144,0.55 0.144,0.835 v 28.4 c 0,4.271 0.633,8.507 1.88,12.59 0.381,1.245 0.941,2.422 1.667,3.499 3.056,4.531 4.672,9.682 4.672,14.895 v 49.563 c 0,1.381 -1.119,2.5 -2.5,2.5 -1.381,0 -2.5,-1.119 -2.5,-2.5 v -49.563 c 0,-4.213 -1.32,-8.397 -3.817,-12.1 -1.003,-1.488 -1.778,-3.114 -2.304,-4.833 -1.393,-4.558 -2.099,-9.285 -2.099,-14.051 v -27.97 l -1.345,-3.796 c -0.853,-2.406 -0.699,-4.991 0.433,-7.279 1.131,-2.287 3.093,-3.979 5.525,-4.763 2.443,-0.787 5.024,-0.458 7.193,0.706 0.082,-0.197 0.17,-0.392 0.265,-0.584 1.131,-2.288 3.093,-3.979 5.526,-4.764 1.398,-0.45 2.841,-0.535 4.225,-0.308 l -7.347,-20.678 c -0.853,-2.407 -0.7,-4.992 0.432,-7.28 1.131,-2.287 3.093,-3.979 5.526,-4.763 4.759,-1.534 10.044,1.171 11.783,6.032 l 12.485,34.922 4.065,-30.243 c 0.34,-2.532 1.659,-4.763 3.713,-6.283 2.052,-1.519 4.57,-2.129 7.097,-1.712 4.941,0.813 8.405,5.642 7.723,10.766 l -5.7,42.787 c 5.663,1.862 9.399,7.398 8.95,13.391 l -0.868,11.555 c -0.333,4.437 -1.554,8.613 -3.63,12.412 -1.363,2.492 -2.868,4.929 -4.474,7.243 -3.286,4.734 -7.787,11.218 -7.787,15.606 v 45.552 c 0.001,1.378 -1.118,2.497 -2.499,2.497 z"
           id="path90" />
      </g>
    </g>
  </g>
</svg>
